<svg class="wordmark" width="1015" height="66" viewBox="0 0 1015 66" fill="none" xmlns="http://www.w3.org/2000/svg">
<path class="wordmark__letter" fill-rule="evenodd" clip-rule="evenodd" d="M744.614 24.152H749.21V53.7901H760.296V24.1615H769.126V15.1128H760.154V13.5778C760.154 10.6595 761.613 9.34244 764.171 9.34244C766.066 9.34244 767.601 9.70249 769.202 10.2899V1.09911C767.156 0.435854 764.825 0 761.319 0C757.377 0 754.393 1.01383 752.346 3.06045C750.309 5.10707 749.21 8.24333 749.21 12.545V15.0275H744.614V24.152ZM47.1626 0.511706H58.2579V20.2104C60.8162 16.932 64.0946 13.9379 69.7133 13.9379C78.1082 13.9379 82.9974 19.4808 82.9974 28.4632V53.7807H71.9021V31.9595C71.9021 26.7103 69.4196 24.0099 65.1842 24.0099C60.9488 24.0099 58.2484 26.7103 58.2484 31.9595V53.7807H47.1531V0.511706H47.1626ZM0.090332 2.70049H23.4369C29.9274 2.70049 34.9681 4.52918 38.3223 7.88336C41.1648 10.7259 42.6998 14.7433 42.6998 19.5567V19.6988C42.6998 27.9421 38.2465 33.125 31.7561 35.5317L44.2348 53.7712H31.1023L20.1586 37.4267H11.3278V53.7712H0.090332V2.70049ZM22.7074 27.5063C28.184 27.5063 31.3202 24.5879 31.3202 20.2863V20.1441C31.3202 15.3308 27.966 12.8483 22.4894 12.8483H11.3278V27.5158H22.7074V27.5063ZM86.8537 34.2998V34.4419C86.8537 45.6794 95.8266 54.6523 107.945 54.6523C120.13 54.6523 129.179 45.5278 129.179 34.2903V34.1482C129.179 22.9107 120.196 13.9378 108.087 13.9378C95.9024 13.9378 86.8537 23.0623 86.8537 34.2998ZM118.235 34.2998V34.4419C118.235 40.2028 114.436 45.0919 108.097 45.0919C101.966 45.0919 97.8069 40.0512 97.8069 34.2903V34.1482C97.8069 28.3873 101.597 23.4982 107.945 23.4982C114.076 23.4982 118.235 28.5389 118.235 34.2998ZM132.315 34.2999V34.1577C132.315 21.0916 140.852 13.9474 150.119 13.9474C156.031 13.9474 159.679 16.6478 162.304 19.784V0.511706H173.399V53.7807H162.304V48.1619C159.603 51.8098 155.88 54.5102 150.119 54.5102C141.004 54.5102 132.315 47.3565 132.315 34.2999ZM162.455 34.2999V34.1577C162.455 27.6673 158.154 23.3561 152.971 23.3561C147.788 23.3561 143.411 27.5915 143.411 34.1577V34.2999C143.411 40.7903 147.788 45.1015 152.971 45.1015C158.154 45.1015 162.455 40.7903 162.455 34.2999ZM177.417 34.2998V34.4419C177.417 46.4089 186.096 54.6523 197.845 54.6523C204.923 54.6523 210.182 51.8761 213.829 47.3565L207.481 41.7377C204.421 44.5897 201.72 45.7552 197.997 45.7552C193.032 45.7552 189.535 43.1211 188.436 38.0898H215.658C215.667 37.961 215.675 37.8322 215.684 37.7037C215.742 36.8113 215.8 35.9335 215.8 35.1715C215.8 24.0762 209.812 13.9378 196.755 13.9378C185.366 13.9378 177.417 23.1381 177.417 34.2998ZM196.755 22.8349C201.427 22.8349 204.345 26.1891 204.999 31.1541H188.294C189.166 26.1228 192.16 22.8349 196.755 22.8349ZM238.787 2.70049H250.024V53.7807H238.787V2.70049ZM258.713 41.302L253.966 48.5979C259.149 52.6816 265.27 54.5103 270.746 54.5198C279.217 54.5198 285.707 50.5782 285.707 41.899V41.7568C285.707 34.6032 279.359 31.9786 273.883 30.1499C273.466 30.006 273.054 29.8664 272.65 29.7295C268.959 28.4776 265.933 27.4516 265.933 25.4786V25.3365C265.933 23.8015 267.316 22.6361 270.017 22.6361C272.869 22.6361 276.734 24.0195 280.6 26.284L284.836 18.6187C280.61 15.7667 275.209 14.0896 270.244 14.0896C262.37 14.0896 255.946 18.5429 255.946 26.4925V26.6346C255.946 34.2241 262.143 36.7824 267.619 38.3837C268.119 38.5364 268.612 38.6823 269.093 38.8245L269.094 38.8249C272.759 39.9093 275.721 40.7855 275.721 42.9128V43.0549C275.721 44.8078 274.261 45.9733 271.049 45.9733C267.392 45.9733 262.948 44.3625 258.713 41.302ZM290.597 0.511706H301.692V53.7807H290.597V0.511706ZM305.813 34.1579V34.3C305.813 47.3567 314.502 54.5104 323.627 54.5198C329.388 54.5198 333.111 51.8194 335.812 48.1715V53.7903H346.898V14.6771H335.802V19.7842C333.178 16.6479 329.53 13.9475 323.617 13.9475C314.351 13.9475 305.813 21.0917 305.813 34.1579ZM335.954 34.1579V34.3C335.954 40.7904 331.652 45.1016 326.469 45.1016C321.286 45.1016 316.909 40.7904 316.909 34.3V34.1579C316.909 27.5916 321.286 23.3563 326.469 23.3563C331.652 23.3563 335.954 27.6674 335.954 34.1579ZM353.028 14.6674H364.123V20.2103C366.682 16.9319 369.96 13.9378 375.579 13.9378C383.974 13.9378 388.863 19.4807 388.863 28.4631V53.7806H377.767V31.9594C377.767 26.7102 375.285 24.0098 371.05 24.0098C366.814 24.0098 364.114 26.7102 364.114 31.9594V53.7806H353.018V14.6674H353.028ZM392.7 34.1577V34.2999C392.7 47.3565 401.379 54.5102 410.504 54.5102C416.265 54.5102 419.988 51.8098 422.689 48.1619V53.7807H433.784V0.511706H422.689V19.784C420.064 16.6478 416.416 13.9474 410.504 13.9474C401.237 13.9474 392.7 21.0916 392.7 34.1577ZM422.831 34.1577V34.2999C422.831 40.7903 418.529 45.1015 413.346 45.1015C408.164 45.1015 403.786 40.7903 403.786 34.2999V34.1577C403.786 27.5915 408.164 23.3561 413.346 23.3561C418.529 23.3561 422.831 27.6673 422.831 34.1577ZM455.89 46.3333L462.532 38.3837C467.127 42.1737 471.94 44.5898 477.786 44.5898C482.382 44.5898 485.158 42.7706 485.158 39.7765V39.6344C485.158 36.7918 483.405 35.3327 474.868 33.1439C464.578 30.5193 457.936 27.6673 457.936 17.529V17.3869C457.936 8.12022 465.374 1.98984 475.816 1.98984C483.254 1.98984 489.611 4.32071 494.785 8.48027L488.948 16.9415C484.428 13.8053 479.975 11.9103 475.664 11.9103C471.362 11.9103 469.098 13.8811 469.098 16.3635V16.5057C469.098 19.8599 471.287 20.959 480.117 23.214C490.483 25.9144 496.32 29.6381 496.32 38.5353V38.6774C496.32 48.8157 488.588 54.5103 477.569 54.5103C469.827 54.5103 462.02 51.8099 455.89 46.3333ZM499.503 34.2998V34.4419C499.503 45.6036 508.107 54.6523 519.846 54.6523C527.663 54.6523 532.041 51.6581 535.831 47.4986L529.34 40.9324C526.64 43.4906 524.091 45.0919 520.367 45.0919C514.313 45.0919 510.447 40.2786 510.447 34.2903V34.1482C510.447 28.3873 514.389 23.4982 519.932 23.4982C523.873 23.4982 526.356 25.1753 528.838 27.7999L535.622 20.5041C531.974 16.4203 527.379 13.9378 520.007 13.9378C508.04 13.9378 499.503 23.1381 499.503 34.2998ZM538.834 0.511706H549.93V20.2104C552.488 16.932 555.766 13.9379 561.385 13.9379C569.78 13.9379 574.669 19.4808 574.669 28.4632V53.7807H563.574V31.9595C563.574 26.7103 561.091 24.0099 556.856 24.0099C552.621 24.0099 549.92 26.7103 549.92 31.9595V53.7807H538.825V0.511706H538.834ZM578.601 34.2998V34.4419C578.601 45.6794 587.574 54.6523 599.693 54.6523C611.878 54.6523 620.927 45.5278 620.927 34.2903V34.1482C620.927 22.9107 611.944 13.9378 599.835 13.9378C587.65 13.9378 578.601 23.0623 578.601 34.2998ZM609.973 34.2998V34.4419C609.973 40.2028 606.183 45.0919 599.826 45.0919C593.695 45.0919 589.536 40.0512 589.536 34.2903V34.1482C589.536 28.3873 593.335 23.4982 599.683 23.4982C605.814 23.4982 609.973 28.5389 609.973 34.2998ZM624.139 34.4419V34.2998C624.139 23.0623 633.187 13.9378 645.372 13.9378C657.482 13.9378 666.464 22.9107 666.464 34.1482V34.2903C666.464 45.5278 657.415 54.6523 645.23 54.6523C633.112 54.6523 624.139 45.6794 624.139 34.4419ZM655.511 34.4419V34.2998C655.511 28.5389 651.351 23.4982 645.221 23.4982C638.872 23.4982 635.082 28.3873 635.082 34.1482V34.2903C635.082 40.0512 639.242 45.0919 645.372 45.0919C651.721 45.0919 655.511 40.2028 655.511 34.4419ZM681.425 0.511706H670.33V53.7807H681.425V0.511706ZM700.83 34.4419V34.2998C700.83 23.0623 709.879 13.9378 722.064 13.9378C734.173 13.9378 743.155 22.9107 743.155 34.1482V34.2903C743.155 45.5278 734.107 54.6523 721.922 54.6523C709.803 54.6523 700.83 45.6794 700.83 34.4419ZM732.202 34.4419V34.2998C732.202 28.5389 728.043 23.4982 721.912 23.4982C715.564 23.4982 711.774 28.3873 711.774 34.1482V34.2903C711.774 40.0512 715.933 45.0919 722.064 45.0919C728.412 45.0919 732.202 40.2028 732.202 34.4419ZM790.881 2.70049H810.798C826.849 2.70049 837.944 13.72 837.944 28.0937V28.2359C837.944 42.6096 826.849 53.7712 810.798 53.7712H790.881V2.70049ZM802.119 12.8388V43.6329H810.798C819.989 43.6329 826.195 37.4267 826.195 28.3875V28.2359C826.195 19.1871 819.989 12.8388 810.798 12.8388H802.119ZM841.014 34.2998V34.4419C841.014 46.4089 849.693 54.6523 861.452 54.6523C868.53 54.6523 873.788 51.8761 877.436 47.3565L871.088 41.7377C868.028 44.5897 865.327 45.7552 861.603 45.7552C856.638 45.7552 853.142 43.1211 852.043 38.0898H879.255L879.281 37.7042C879.34 36.8116 879.398 35.9336 879.398 35.1715C879.398 24.0762 873.419 13.9378 860.353 13.9378C848.964 13.9378 841.014 23.1381 841.014 34.2998ZM860.353 22.8349C865.024 22.8349 867.942 26.1891 868.596 31.1541H851.891C852.763 26.1228 855.757 22.8349 860.353 22.8349ZM880.487 48.5979L885.234 41.302C889.47 44.3625 893.913 45.9733 897.561 45.9733C900.773 45.9733 902.233 44.8078 902.233 43.0549V42.9128C902.233 40.7855 899.271 39.9093 895.606 38.8249L895.605 38.8245C895.124 38.6823 894.631 38.5364 894.131 38.3837C888.655 36.7824 882.458 34.2241 882.458 26.6346V26.4925C882.458 18.5429 888.882 14.0896 896.756 14.0896C901.721 14.0896 907.122 15.7667 911.348 18.6187L907.112 26.284C903.246 24.0195 899.381 22.6361 896.529 22.6361C893.828 22.6361 892.445 23.8015 892.445 25.3365V25.4786C892.445 27.4516 895.471 28.4776 899.162 29.7295C899.566 29.8664 899.978 30.006 900.394 30.1499C905.871 31.9786 912.219 34.6032 912.219 41.7568V41.899C912.219 50.5782 905.729 54.5198 897.258 54.5198C891.801 54.5103 885.67 52.6816 880.487 48.5979ZM927.844 0.511706H916.17V10.3658H927.844V0.511706ZM927.559 14.6675H916.464V53.7807H927.559V14.6675ZM933.472 61.5125L937.262 53.1933C941.28 55.4579 945.288 56.7654 950.47 56.7654C958.06 56.7654 961.632 53.1175 961.632 46.1154V44.2204C958.344 48.1621 954.772 50.5687 948.86 50.5687C939.735 50.5687 931.492 43.9267 931.492 32.3292V32.1871C931.492 20.5138 939.887 13.9475 948.86 13.9475C954.914 13.9475 958.496 16.5058 961.481 19.7842V14.6771H972.576V44.9595C972.576 51.9616 970.899 57.0686 967.611 60.3565C963.963 64.0044 958.344 65.6057 950.755 65.6057C944.416 65.5962 938.428 64.1371 933.472 61.5125ZM961.632 32.3292V32.1871C961.632 26.8621 957.472 23.1384 952.072 23.1384C946.671 23.1384 942.587 26.8621 942.587 32.1871V32.3292C942.587 37.73 946.671 41.3779 952.072 41.3779C957.472 41.3779 961.632 37.6542 961.632 32.3292ZM989.441 14.6674H978.346V53.7806H989.441V31.9594C989.441 26.7102 992.151 24.0098 996.377 24.0098C1000.6 24.0098 1003.09 26.7102 1003.09 31.9594V53.7806H1014.18V28.4631C1014.18 19.4807 1009.29 13.9378 1000.9 13.9378C995.278 13.9378 992 16.9319 989.441 20.2103V14.6674Z" />
</svg>
