<svg class="wordmark" xmlns="http://www.w3.org/2000/svg" viewBox="0 0 648.24 201.63">
  <path class="wordmark__letter" d="M0,3.67H89.22c24.81,0,44.05,7,56.88,19.8C157,34.34,162.83,49.68,162.83,68.08v0.56c0,31.51-17,51.3-41.82,60.5l47.68,69.7H118.5L76.67,136.39H42.94v62.45H0V3.67Zm86.43,94.8c20.91,0,32.9-11.15,32.9-27.6V70.31c0-18.4-12.83-27.88-33.74-27.88H42.94v56H86.43Z"></path>
  <path class="wordmark__letter" d="M203.54,3.67h42.94V198.84H203.54V3.67Z"></path>
  <path class="wordmark__letter" d="M281.05,170.4L306.43,140c17.57,14.5,36,23.7,58.27,23.7,17.57,0,28.16-7,28.16-18.4v-0.56c0-10.87-6.69-16.45-39.31-24.81-39.31-10-64.68-20.91-64.68-59.67V59.71c0-35.41,28.44-58.83,68.31-58.83,28.44,0,52.7,8.92,72.49,24.81L407.36,58C390.07,46,373.06,38.8,356.61,38.8s-25.09,7.53-25.09,17v0.56c0,12.83,8.36,17,42.1,25.65,39.59,10.32,61.9,24.54,61.9,58.55v0.56c0,38.76-29.55,60.5-71.66,60.5A124.19,124.19,0,0,1,281.05,170.4Z"></path>
  <path class="wordmark__letter" d="M467.31,3.67h76.12c61.34,0,103.72,42.1,103.72,97v0.56c0,54.93-42.38,97.59-103.72,97.59H467.31V3.67Zm76.12,156.41c35.13,0,58.83-23.7,58.83-58.27v-0.56c0-34.57-23.7-58.83-58.83-58.83H510.25V160.08h33.18Z"></path>
</svg>
